<svg width="20" height="15" viewBox="0 0 20 15" fill="none" xmlns="http://www.w3.org/2000/svg">
<g clip-path="url(#clip0_1660_1486)">
<rect width="20" height="15" fill="white"/>
<path fill-rule="evenodd" clip-rule="evenodd" d="M0 0H20V15H0V0Z" fill="#F50100"/>
<path d="M11.1289 2.47639C11.7026 2.47639 11.9572 2.12251 12.2598 2.29963C12.5622 2.4765 12.9271 2.47639 12.8018 2.47639C12.6763 2.47639 12.2256 2.73322 12.5742 2.73322C12.9228 2.73304 13.3192 2.22006 13.3193 2.47639C13.3193 2.47639 13.4181 2.76592 13.1787 2.78791C13.1724 2.78853 12.0998 2.89388 12.3096 2.94123C12.3096 2.94123 12.5022 3.0204 12.6338 3.02522C12.6338 3.02522 12.6904 3.22556 12.3408 3.28108C12.3408 3.28108 11.3517 3.46442 11.3057 3.78205C11.2604 4.0999 10.9481 4.81704 11.3057 4.81721C11.6633 4.81721 11.8953 4.5719 11.8955 4.2967C11.8955 4.02136 11.9449 3.55567 12.2598 3.53303C12.2805 3.52605 13.0352 3.27217 13.1299 3.28987C13.2249 3.30815 13.0539 3.44514 13.3193 3.44514C13.5854 3.44462 14.3554 2.80607 14.4766 2.55256C14.5947 2.3062 14.7704 2.54042 14.7793 2.55256C14.7793 2.55256 14.8967 3.26234 14.2871 3.52229C13.6875 3.77749 13.3316 3.78197 13.3193 3.78205C13.3193 3.78205 12.9385 4.06227 13.1787 4.06233C13.419 4.06233 13.9324 4.16072 14.2871 3.97151C14.641 3.78271 14.7789 3.67702 14.7793 3.78205C14.7793 3.88786 14.7816 4.48225 14.373 4.48225H13.3193C13.1791 4.48225 12.8468 4.68203 13.3984 4.81721C13.9496 4.95225 14.1277 4.89582 14.373 4.81721C14.6186 4.73852 14.7793 4.69382 14.7793 4.81721C14.7784 4.94131 14.4424 5.40217 14.1533 5.40217C13.864 5.40213 13.5431 5.14547 13.3984 5.14533C13.2539 5.14533 13.1039 5.40201 13.1787 5.40217C13.2537 5.40217 13.5026 5.77326 13.8281 5.77326C14.1535 5.7732 14.349 5.65315 14.5645 5.65315C14.7795 5.65311 14.7793 5.60855 14.7793 5.77326C14.7793 5.93859 14.3496 6.1219 14.1533 6.1219C13.9571 6.12179 13.1319 5.64911 13.1299 5.77326C13.1299 5.89906 13.6485 6.576 13.9678 6.576H14.5645C14.7752 6.57623 14.6976 6.8388 14.6943 6.84944C14.6943 6.84944 14.4856 7.0349 14.2266 7.03498C13.9675 7.03498 13.7129 6.77327 13.5557 6.67463C13.3984 6.57602 13.1788 6.49974 13.1787 6.67463C13.1787 6.84961 13.6743 7.54841 14.0752 7.54865C14.4759 7.54865 14.7789 7.38787 14.7793 7.54865C14.7793 7.70998 14.593 8.06942 14.373 7.99006C14.1528 7.9106 13.4595 7.66154 13.3193 7.39729C13.1791 7.13296 12.9229 7.24581 13.0264 7.39729C13.13 7.54889 13.6743 8.33184 14.0752 8.4051C14.4761 8.4781 14.8648 8.45932 14.7793 8.63264C14.6937 8.80596 14.3394 9.04778 14.1533 8.97151C13.967 8.8949 13.3318 8.31188 13.1787 8.06819C13.0259 7.82472 12.6342 7.35825 12.6338 7.54865C12.6338 7.73992 12.4741 8.2623 12.8018 8.33381C13.1291 8.40527 13.3018 8.71997 13.1299 8.72053C12.9573 8.72053 12.3413 8.57312 12.3408 8.18244C12.3408 7.79146 12.0615 7.57171 12.0615 7.68147C12.0615 7.79137 12.0333 8.12163 12.1865 8.33381C12.34 8.54609 12.1228 8.71927 12.0615 8.63264C12.0002 8.54596 11.7383 8.14689 11.7373 8.06819C11.7373 7.99063 11.645 7.80772 11.5361 7.80744C11.4272 7.80744 11.4055 7.99762 11.6094 8.4051C11.8133 8.81259 12.3157 9.1385 12.4746 9.1385C12.6308 9.13857 12.4797 9.4919 12.4746 9.50373L13.5557 9.78401C13.5624 9.78051 13.9678 9.57094 13.9678 9.50373C13.9685 9.43578 14.1826 9.27148 14.373 9.27131C14.5637 9.27131 14.5793 9.50338 14.4766 9.50373C14.3736 9.50373 14.1833 9.68244 14.0752 9.68244C13.9669 9.68274 13.6367 9.91389 13.6367 9.91389H14.373C14.3704 9.91088 14.2594 9.78401 14.5645 9.78401C14.873 9.78409 15 9.91389 15 9.91389C14.9942 9.91727 14.652 10.1176 14.5645 10.118C14.5087 10.118 14.416 10.1436 14.2715 10.1463C14.2537 10.1349 14.2439 10.137 14.2363 10.1463C14.1606 10.1455 14.0717 10.1404 13.9678 10.118C13.6373 10.0467 14.2266 10.2664 14.2266 10.2664C14.2266 10.2664 14.1822 9.9771 14.373 10.2664C14.5638 10.5557 14.593 10.6453 14.373 10.6453C14.1534 10.6453 13.968 10.5786 13.9678 10.4227C13.9678 10.2678 13.5627 10.1205 13.5557 10.118L13.0264 10.4227C13.0317 10.4321 13.1197 10.5934 12.9629 10.6453C12.8016 10.6985 12.5748 10.6206 12.5742 10.5672C12.5742 10.5137 12.6274 10.2665 12.7646 10.2664C12.9019 10.2664 13.3193 10.0389 13.3193 10.0389L12.3096 9.73811C12.3009 9.74737 12.0251 10.0389 11.9336 10.0389C11.8402 10.0365 11.5723 9.30494 11.4072 9.1385C11.2419 8.97174 11.1376 8.62702 10.9463 8.76447C10.755 8.90196 10.6791 9.32569 10.9463 9.68244C11.2133 10.0388 11.6752 10.3204 11.8047 10.3211C11.9336 10.3211 12.1865 10.3337 12.1865 10.4227C12.1863 10.5122 12.0736 10.8756 11.8047 10.7215C11.5355 10.5672 11.2479 10.3822 11.207 10.4227C11.1669 10.4646 11.3354 10.9218 11.5703 11.0311C11.8055 11.1403 12.002 10.9832 12.002 11.1756C12.0017 11.368 11.8357 11.582 11.5361 11.3787C11.2363 11.1752 11.0551 10.8259 11.001 10.9608C10.9469 11.0958 10.9694 11.6227 11.207 11.6229C11.4445 11.6229 11.609 11.589 11.6094 11.6815C11.6094 11.7744 11.554 12.1706 11.3057 12.0125C11.0575 11.8545 10.8754 11.6578 10.8311 11.5184C10.7867 11.379 10.5222 11.5177 10.6055 11.7137C10.689 11.9097 10.892 12.305 10.9463 12.3055C11.0004 12.3055 10.3164 13.4998 10.3164 13.4998L10.3125 12.0125L10.3086 13.4998C10.3086 13.4998 9.62455 12.3055 9.67871 12.3055C9.73301 12.305 9.93603 11.9097 10.0195 11.7137C10.1028 11.5177 9.83832 11.379 9.79395 11.5184C9.74958 11.6578 9.56753 11.8545 9.31934 12.0125C9.07104 12.1706 9.01562 11.7744 9.01562 11.6815C9.01602 11.589 9.18049 11.6229 9.41797 11.6229C9.65557 11.6227 9.67811 11.0958 9.62402 10.9608C9.56987 10.8259 9.38873 11.1752 9.08887 11.3787C8.78931 11.582 8.62328 11.368 8.62305 11.1756C8.62305 10.9832 8.81954 11.1403 9.05469 11.0311C9.28957 10.9218 9.45806 10.4646 9.41797 10.4227C9.37709 10.3822 9.0895 10.5672 8.82031 10.7215C8.55137 10.8756 8.43875 10.5122 8.43848 10.4227C8.43848 10.3337 8.69143 10.3211 8.82031 10.3211C8.94984 10.3204 9.41171 10.0388 9.67871 9.68244C9.94591 9.32569 9.87001 8.90196 9.67871 8.76447C9.48743 8.62702 9.38309 8.97174 9.21777 9.1385C9.05265 9.30494 8.78477 10.0365 8.69141 10.0389C8.59993 10.0389 8.32413 9.74737 8.31543 9.73811L7.30566 10.0389C7.30566 10.0389 7.72311 10.2664 7.86035 10.2664C7.99756 10.2665 8.05078 10.5137 8.05078 10.5672C8.05021 10.6206 7.82345 10.6985 7.66211 10.6453C7.50529 10.5934 7.5933 10.4321 7.59863 10.4227L7.06934 10.118C7.06229 10.1205 6.65723 10.2678 6.65723 10.4227C6.65697 10.5786 6.47163 10.6453 6.25195 10.6453C6.03201 10.6453 6.06118 10.5557 6.25195 10.2664C6.44278 9.9771 6.39844 10.2664 6.39844 10.2664C6.39844 10.2664 6.98766 10.0467 6.65723 10.118C6.55288 10.1405 6.46366 10.1455 6.3877 10.1463C6.37998 10.1374 6.37037 10.1346 6.35254 10.1463C6.20857 10.1435 6.11618 10.118 6.06055 10.118C5.97299 10.1176 5.63077 9.91727 5.625 9.91389C5.625 9.91389 5.75203 9.78409 6.06055 9.78401C6.36561 9.78401 6.25464 9.91088 6.25195 9.91389H6.98828C6.98828 9.91389 6.65812 9.68274 6.5498 9.68244C6.44171 9.68244 6.25142 9.50373 6.14844 9.50373C6.04571 9.50338 6.06127 9.27131 6.25195 9.27131C6.44238 9.27148 6.6565 9.43578 6.65723 9.50373C6.65723 9.57094 7.06257 9.78051 7.06934 9.78401L8.15039 9.50373C8.14529 9.4919 7.99424 9.13857 8.15039 9.1385C8.30928 9.1385 8.8117 8.81259 9.01562 8.4051C9.21954 7.99762 9.19785 7.80744 9.08887 7.80744C8.97999 7.80772 8.8877 7.99063 8.8877 8.06819C8.88666 8.14689 8.62479 8.54596 8.56348 8.63264C8.50218 8.71927 8.28502 8.54609 8.43848 8.33381C8.5917 8.12163 8.56351 7.79137 8.56348 7.68147C8.56348 7.57171 8.28418 7.79146 8.28418 8.18244C8.28375 8.57312 7.66771 8.72053 7.49512 8.72053C7.32324 8.71997 7.49585 8.40527 7.82324 8.33381C8.15095 8.2623 7.99121 7.73992 7.99121 7.54865C7.99076 7.35825 7.59905 7.82472 7.44629 8.06819C7.29316 8.31188 6.65795 8.8949 6.47168 8.97151C6.28562 9.04778 5.93127 8.80596 5.8457 8.63264C5.76019 8.45932 6.14887 8.4781 6.5498 8.4051C6.95066 8.33184 7.49505 7.54889 7.59863 7.39729C7.70213 7.24581 7.4459 7.13296 7.30566 7.39729C7.16549 7.66154 6.47222 7.9106 6.25195 7.99006C6.03199 8.06942 5.8457 7.70998 5.8457 7.54865C5.84611 7.38787 6.14914 7.54865 6.5498 7.54865C6.9507 7.54841 7.44629 6.84961 7.44629 6.67463C7.44621 6.49974 7.22657 6.57602 7.06934 6.67463C6.91207 6.77327 6.65753 7.03498 6.39844 7.03498C6.13942 7.0349 5.93066 6.84944 5.93066 6.84944C5.92743 6.8388 5.84977 6.57623 6.06055 6.576H6.65723C6.97655 6.576 7.49512 5.89906 7.49512 5.77326C7.49308 5.64911 6.66786 6.12179 6.47168 6.1219C6.27537 6.1219 5.8457 5.93859 5.8457 5.77326C5.8457 5.60855 5.84553 5.65311 6.06055 5.65315C6.27599 5.65315 6.47152 5.7732 6.79688 5.77326C7.12238 5.77326 7.37133 5.40217 7.44629 5.40217C7.52109 5.40201 7.3711 5.14533 7.22656 5.14533C7.08194 5.14547 6.76103 5.40213 6.47168 5.40217C6.18261 5.40217 5.84657 4.94131 5.8457 4.81721C5.8457 4.69382 6.00638 4.73852 6.25195 4.81721C6.49728 4.89582 6.6754 4.95225 7.22656 4.81721C7.77821 4.68203 7.4459 4.48225 7.30566 4.48225H6.25195C5.8434 4.48225 5.8457 3.88786 5.8457 3.78205C5.84608 3.67702 5.98398 3.78271 6.33789 3.97151C6.69263 4.16072 7.20597 4.06233 7.44629 4.06233C7.68646 4.06227 7.30566 3.78205 7.30566 3.78205C7.29341 3.78197 6.93747 3.77749 6.33789 3.52229C5.72829 3.26234 5.8457 2.55256 5.8457 2.55256C5.85461 2.54042 6.03029 2.3062 6.14844 2.55256C6.26964 2.80607 7.03955 3.44462 7.30566 3.44514C7.57106 3.44514 7.40013 3.30815 7.49512 3.28987C7.58977 3.27217 8.34455 3.52605 8.36523 3.53303C8.68011 3.55567 8.72949 4.02136 8.72949 4.2967C8.72969 4.5719 8.96168 4.81721 9.31934 4.81721C9.67694 4.81704 9.3646 4.0999 9.31934 3.78205C9.27328 3.46442 8.28418 3.28108 8.28418 3.28108C7.93463 3.22556 7.99121 3.02522 7.99121 3.02522C8.12278 3.0204 8.31543 2.94123 8.31543 2.94123C8.52517 2.89388 7.45256 2.78853 7.44629 2.78791C7.2069 2.76592 7.30566 2.47639 7.30566 2.47639C7.30582 2.22006 7.70225 2.73304 8.05078 2.73322C8.39943 2.73322 7.94874 2.47639 7.82324 2.47639C7.69791 2.47639 8.06279 2.4765 8.36523 2.29963C8.66779 2.12251 8.92236 2.47639 9.49609 2.47639C10.0694 2.47651 9.61433 3.09953 9.93555 3.52229C10.1629 3.82105 10.2698 3.87858 10.3125 3.88752C10.3552 3.87858 10.4621 3.82105 10.6895 3.52229C11.0107 3.09953 10.5556 2.47651 11.1289 2.47639Z" fill="#1A1A1A"/>
</g>
<defs>
<clipPath id="clip0_1660_1486">
<rect width="20" height="15" fill="white"/>
</clipPath>
</defs>
</svg>
